<svg viewBox="0 0 800 600" xmlns="http://www.w3.org/2000/svg">
    <!-- 背景 -->
    <rect width="800" height="600" fill="white"/>

    <!-- 坐标轴 -->
    <line x1="60" y1="550" x2="740" y2="550" stroke="black" stroke-width="2"/>
    <line x1="60" y1="50" x2="60" y2="550" stroke="black" stroke-width="2"/>

    <!-- Y轴刻度 -->
    <text x="30" y="550" text-anchor="end">200</text>
    <text x="30" y="450" text-anchor="end">210</text>
    <text x="30" y="350" text-anchor="end">220</text>
    <text x="30" y="250" text-anchor="end">230</text>
    <text x="30" y="150" text-anchor="end">240</text>
    <text x="55" y="50" text-anchor="end">MB/sec</text>

    <!-- X轴刻度 -->
    <text x="250" y="580" text-anchor="middle">1</text>
    <text x="470" y="580" text-anchor="middle">2</text>
    <text x="690" y="580" text-anchor="middle">3</text>
    <text x="400" y="595" text-anchor="middle">Test Number</text>

    <!-- Kafka线 -->
    <polyline
        points="250,350 470,450 690,370"
        fill="none"
        stroke="blue"
        stroke-width="3"
    />

    <!-- Stonemq线 -->
    <polyline
        points="250,300 470,250 690,320"
        fill="none"
        stroke="red"
        stroke-width="3"
    />

    <!-- 数据点 -->
    <circle cx="250" cy="350" r="5" fill="blue"/>
    <circle cx="470" cy="450" r="5" fill="blue"/>
    <circle cx="690" cy="370" r="5" fill="blue"/>

    <circle cx="250" cy="300" r="5" fill="red"/>
    <circle cx="470" cy="250" r="5" fill="red"/>
    <circle cx="690" cy="320" r="5" fill="red"/>

    <!-- 标题 -->
    <text x="400" y="35" text-anchor="middle" font-size="24">Throughput Comparison</text>

    <!-- 图例 -->
    <text x="500" y="50">-message size 100 bytes, sending 1M records </text>
    <rect x="375" y="60" width="18" height="18" fill="blue"/>
    <text x="400" y="75">Kafka (100 partitions, 357M memory 87 threads)</text>
    <rect x="375" y="85" width="18" height="18" fill="red"/>
    <text x="400" y="100">Stonemq (2 journals-100 queues, 31M memory 29 threads)</text>

    <!-- 延迟标注 (Kafka) -->
    <text x="250" y="370" font-size="10" text-anchor="middle" fill="blue">223.87 MB/s</text>
    <text x="250" y="385" font-size="8" text-anchor="middle" fill="blue">50th=6ms</text>
    <text x="250" y="395" font-size="8" text-anchor="middle" fill="blue">95th=23ms</text>
    <text x="250" y="405" font-size="8" text-anchor="middle" fill="blue">99th=26ms</text>
    <text x="250" y="415" font-size="8" text-anchor="middle" fill="blue">99.9th=28ms</text>
    
    <text x="470" y="470" font-size="10" text-anchor="middle" fill="blue">200.77 MB/s</text>
    <text x="470" y="485" font-size="8" text-anchor="middle" fill="blue">50th=18ms</text>
    <text x="470" y="495" font-size="8" text-anchor="middle" fill="blue">95th=75ms</text>
    <text x="470" y="505" font-size="8" text-anchor="middle" fill="blue">99th=82ms</text>
    <text x="470" y="515" font-size="8" text-anchor="middle" fill="blue">99.9th=84ms</text>
    
    <text x="690" y="390" font-size="10" text-anchor="middle" fill="blue">220.76 MB/s</text>
    <text x="690" y="405" font-size="8" text-anchor="middle" fill="blue">50th=5ms</text>
    <text x="690" y="415" font-size="8" text-anchor="middle" fill="blue">95th=21ms</text>
    <text x="690" y="425" font-size="8" text-anchor="middle" fill="blue">99th=23ms</text>
    <text x="690" y="435" font-size="8" text-anchor="middle" fill="blue">99.9th=25ms</text>

    <!-- 延迟标注 (Stonemq) -->
    <text x="250" y="320" font-size="10" text-anchor="middle" fill="red">232.60 MB/s</text>
    <text x="250" y="335" font-size="8" text-anchor="middle" fill="red">50th=3ms</text>
    <text x="250" y="345" font-size="8" text-anchor="middle" fill="red">95th=12ms</text>
    <text x="250" y="355" font-size="8" text-anchor="middle" fill="red">99th=18ms</text>
    <text x="250" y="365" font-size="8" text-anchor="middle" fill="red">99.9th=27ms</text>
    
    <text x="470" y="270" font-size="10" text-anchor="middle" fill="red">234.90 MB/s</text>
    <text x="470" y="285" font-size="8" text-anchor="middle" fill="red">50th=1ms</text>
    <text x="470" y="295" font-size="8" text-anchor="middle" fill="red">95th=2ms</text>
    <text x="470" y="305" font-size="8" text-anchor="middle" fill="red">99th=2ms</text>
    <text x="470" y="315" font-size="8" text-anchor="middle" fill="red">99.9th=3ms</text>
    
    <text x="690" y="340" font-size="10" text-anchor="middle" fill="red">228.15 MB/s</text>
    <text x="690" y="355" font-size="8" text-anchor="middle" fill="red">50th=0ms</text>
    <text x="690" y="365" font-size="8" text-anchor="middle" fill="red">95th=1ms</text>
    <text x="690" y="375" font-size="8" text-anchor="middle" fill="red">99th=2ms</text>
    <text x="690" y="385" font-size="8" text-anchor="middle" fill="red">99.9th=2ms</text>
</svg>