<svg viewBox="0 0 800 600" xmlns="http://www.w3.org/2000/svg">
    <!-- 背景 -->
    <rect width="800" height="600" fill="white"/>

    <!-- 坐标轴 -->
    <line x1="60" y1="550" x2="740" y2="550" stroke="black" stroke-width="2"/>
    <line x1="60" y1="50" x2="60" y2="550" stroke="black" stroke-width="2"/>

    <!-- Y轴刻度 -->
    <text x="30" y="550" text-anchor="end">200</text>
    <text x="30" y="450" text-anchor="end">225</text>
    <text x="30" y="350" text-anchor="end">250</text>
    <text x="30" y="250" text-anchor="end">275</text>
    <text x="55" y="50" text-anchor="end">MB/sec</text>

    <!-- X轴刻度 -->
    <text x="250" y="580" text-anchor="middle">1</text>
    <text x="470" y="580" text-anchor="middle">2</text>
    <text x="690" y="580" text-anchor="middle">3</text>
    <text x="400" y="595" text-anchor="middle">Test Number</text>

    <!-- Kafka线 -->
    <polyline
        points="250,488 470,438 690,362"
        fill="none"
        stroke="blue"
        stroke-width="3"
    />

    <!-- Stonemq线 -->
    <polyline
        points="250,350 470,300 690,400"
        fill="none"
        stroke="red"
        stroke-width="3"
    />

    <!-- 数据点 -->
    <circle cx="250" cy="488" r="5" fill="blue"/>
    <circle cx="470" cy="438" r="5" fill="blue"/>
    <circle cx="690" cy="362" r="5" fill="blue"/>

    <circle cx="250" cy="350" r="5" fill="red"/>
    <circle cx="470" cy="300" r="5" fill="red"/>
    <circle cx="690" cy="400" r="5" fill="red"/>

    <!-- 标题 -->
    <text x="400" y="35" text-anchor="middle" font-size="24">Throughput Comparison</text>

    <!-- 图例 -->
    <text x="500" y="50">-message size 100 bytes, sending 1M records </text>
    <rect x="525" y="60" width="18" height="18" fill="blue"/>
    <text x="550" y="75">Kafka (10 partitions)</text>
    <rect x="525" y="85" width="18" height="18" fill="red"/>
    <text x="550" y="100">Stonemq (2 journals-10 queues)</text>

    <!-- 延迟标注 (Kafka) -->
    <text x="250" y="508" font-size="10" text-anchor="middle" fill="blue">206.87 MB/s</text>
    <text x="250" y="523" font-size="8" text-anchor="middle" fill="blue">50th=3ms</text>
    <text x="250" y="533" font-size="8" text-anchor="middle" fill="blue">95th=6ms</text>
    <text x="250" y="543" font-size="8" text-anchor="middle" fill="blue">99th=16ms</text>
    <text x="250" y="553" font-size="8" text-anchor="middle" fill="blue">99.9th=18ms</text>
    
    <text x="470" y="458" font-size="10" text-anchor="middle" fill="blue">229.80 MB/s</text>
    <text x="470" y="473" font-size="8" text-anchor="middle" fill="blue">50th=1ms</text>
    <text x="470" y="483" font-size="8" text-anchor="middle" fill="blue">95th=7ms</text>
    <text x="470" y="493" font-size="8" text-anchor="middle" fill="blue">99th=17ms</text>
    <text x="470" y="503" font-size="8" text-anchor="middle" fill="blue">99.9th=21ms</text>
    
    <text x="690" y="382" font-size="10" text-anchor="middle" fill="blue">257.06 MB/s</text>
    <text x="690" y="397" font-size="8" text-anchor="middle" fill="blue">50th=1ms</text>
    <text x="690" y="407" font-size="8" text-anchor="middle" fill="blue">95th=2ms</text>
    <text x="690" y="417" font-size="8" text-anchor="middle" fill="blue">99th=11ms</text>
    <text x="690" y="427" font-size="8" text-anchor="middle" fill="blue">99.9th=13ms</text>

    <!-- 延迟标注 (Stonemq) -->
    <text x="250" y="370" font-size="10" text-anchor="middle" fill="red">228.70 MB/s</text>
    <text x="250" y="385" font-size="8" text-anchor="middle" fill="red">50th=0ms</text>
    <text x="250" y="395" font-size="8" text-anchor="middle" fill="red">95th=1ms</text>
    <text x="250" y="405" font-size="8" text-anchor="middle" fill="red">99th=2ms</text>
    <text x="250" y="415" font-size="8" text-anchor="middle" fill="red">99.9th=4ms</text>
    
    <text x="470" y="320" font-size="10" text-anchor="middle" fill="red">249.00 MB/s</text>
    <text x="470" y="335" font-size="8" text-anchor="middle" fill="red">50th=0ms</text>
    <text x="470" y="345" font-size="8" text-anchor="middle" fill="red">95th=1ms</text>
    <text x="470" y="355" font-size="8" text-anchor="middle" fill="red">99th=2ms</text>
    <text x="470" y="365" font-size="8" text-anchor="middle" fill="red">99.9th=3ms</text>
    
    <text x="690" y="420" font-size="10" text-anchor="middle" fill="red">225.99 MB/s</text>
    <text x="690" y="435" font-size="8" text-anchor="middle" fill="red">50th=0ms</text>
    <text x="690" y="445" font-size="8" text-anchor="middle" fill="red">95th=2ms</text>
    <text x="690" y="455" font-size="8" text-anchor="middle" fill="red">99th=3ms</text>
    <text x="690" y="465" font-size="8" text-anchor="middle" fill="red">99.9th=4ms</text>
</svg>