<svg viewBox="0 0 800 600" xmlns="http://www.w3.org/2000/svg">
    <!-- 背景 -->
    <rect width="800" height="600" fill="white"/>

    <!-- 坐标轴 -->
    <line x1="60" y1="550" x2="740" y2="550" stroke="black" stroke-width="2"/>
    <line x1="60" y1="50" x2="60" y2="550" stroke="black" stroke-width="2"/>

    <!-- Y轴刻度 -->
    <text x="30" y="550" text-anchor="end">0</text>
    <text x="30" y="450" text-anchor="end">50</text>
    <text x="30" y="350" text-anchor="end">100</text>
    <text x="30" y="250" text-anchor="end">150</text>
    <text x="30" y="150" text-anchor="end">200</text>
    <text x="30" y="50" text-anchor="end">250</text>
    <text x="55" y="30" text-anchor="end">MB/sec</text>

    <!-- X轴刻度 -->
    <text x="200" y="580" text-anchor="middle">1</text>
    <text x="350" y="580" text-anchor="middle">2</text>
    <text x="500" y="580" text-anchor="middle">3</text>
    <text x="650" y="580" text-anchor="middle">4</text>
    <text x="400" y="595" text-anchor="middle">Test Number</text>

    <!-- Kafka线 -->
    <polyline
        points="200,300 350,520 500,250 650,530"
        fill="none"
        stroke="blue"
        stroke-width="3"
    />

    <!-- Stonemq线 -->
    <polyline
        points="200,50 350,70 500,100 650,150"
        fill="none"
        stroke="red"
        stroke-width="3"
    />

    <!-- 数据点 -->
    <circle cx="200" cy="300" r="5" fill="blue"/>
    <circle cx="350" cy="520" r="5" fill="blue"/>
    <circle cx="500" cy="250" r="5" fill="blue"/>
    <circle cx="650" cy="530" r="5" fill="blue"/>

    <circle cx="200" cy="50" r="5" fill="red"/>
    <circle cx="350" cy="70" r="5" fill="red"/>
    <circle cx="500" cy="100" r="5" fill="red"/>
    <circle cx="650" cy="150" r="5" fill="red"/>

    <!-- 标题 -->
    <text x="400" y="35" text-anchor="middle" font-size="24">Throughput Comparison</text>



    <!-- 图例 -->

    
    <text x="500" y="50">-message size 100 bytes, sending 1M records </text>
    <rect x="525" y="60" width="18" height="18" fill="blue"/>
    <text x="550" y="75">Kafka (1000 partitions)</text>
    <rect x="525" y="85" width="18" height="18" fill="red"/>
    <text x="550" y="100">Stonemq (2 journals-1000 queues)</text>

    <!-- 延迟标注 (Kafka) -->
    <text x="200" y="320" font-size="10" text-anchor="middle" fill="blue">148.78 MB/s</text>
    <text x="200" y="335" font-size="8" text-anchor="middle" fill="blue">50th=32ms</text>
    <text x="200" y="345" font-size="8" text-anchor="middle" fill="blue">95th=90ms</text>
    <text x="200" y="355" font-size="8" text-anchor="middle" fill="blue">99th=108ms</text>
    <text x="200" y="365" font-size="8" text-anchor="middle" fill="blue">99.9th=122ms</text>
    
    <text x="350" y="540" font-size="10" text-anchor="middle" fill="blue">16.03 MB/s</text>
    <text x="350" y="555" font-size="8" text-anchor="middle" fill="blue">50th=11ms</text>
    <text x="350" y="565" font-size="8" text-anchor="middle" fill="blue">95th=19ms</text>
    <text x="350" y="575" font-size="8" text-anchor="middle" fill="blue">99th=31ms</text>
    <text x="350" y="585" font-size="8" text-anchor="middle" fill="blue">99.9th=67ms</text>
    
    <text x="500" y="270" font-size="10" text-anchor="middle" fill="blue">177.26 MB/s</text>
    <text x="500" y="285" font-size="8" text-anchor="middle" fill="blue">50th=48ms</text>
    <text x="500" y="295" font-size="8" text-anchor="middle" fill="blue">95th=132ms</text>
    <text x="500" y="305" font-size="8" text-anchor="middle" fill="blue">99th=162ms</text>
    <text x="500" y="315" font-size="8" text-anchor="middle" fill="blue">99.9th=181ms</text>
    
    <text x="650" y="550" font-size="10" text-anchor="middle" fill="blue">17.48 MB/s</text>
    <text x="650" y="565" font-size="8" text-anchor="middle" fill="blue">50th=11ms</text>
    <text x="650" y="575" font-size="8" text-anchor="middle" fill="blue">95th=15ms</text>
    <text x="650" y="585" font-size="8" text-anchor="middle" fill="blue">99th=19ms</text>
    <text x="650" y="595" font-size="8" text-anchor="middle" fill="blue">99.9th=26ms</text>

    <!-- 延迟标注 (Stonemq) -->
    <text x="200" y="70" font-size="10" text-anchor="middle" fill="red">237.23 MB/s</text>
    <text x="200" y="85" font-size="8" text-anchor="middle" fill="red">50th=1ms</text>
    <text x="200" y="95" font-size="8" text-anchor="middle" fill="red">95th=2ms</text>
    <text x="200" y="105" font-size="8" text-anchor="middle" fill="red">99th=3ms</text>
    <text x="200" y="115" font-size="8" text-anchor="middle" fill="red">99.9th=4ms</text>
    
    <text x="350" y="90" font-size="10" text-anchor="middle" fill="red">229.80 MB/s</text>
    <text x="350" y="105" font-size="8" text-anchor="middle" fill="red">50th=1ms</text>
    <text x="350" y="115" font-size="8" text-anchor="middle" fill="red">95th=2ms</text>
    <text x="350" y="125" font-size="8" text-anchor="middle" fill="red">99th=3ms</text>
    <text x="350" y="135" font-size="8" text-anchor="middle" fill="red">99.9th=4ms</text>
    
    <text x="500" y="120" font-size="10" text-anchor="middle" fill="red">219.24 MB/s</text>
    <text x="500" y="135" font-size="8" text-anchor="middle" fill="red">50th=6ms</text>
    <text x="500" y="145" font-size="8" text-anchor="middle" fill="red">95th=36ms</text>
    <text x="500" y="155" font-size="8" text-anchor="middle" fill="red">99th=55ms</text>
    <text x="500" y="165" font-size="8" text-anchor="middle" fill="red">99.9th=75ms</text>
    
    <text x="650" y="170" font-size="10" text-anchor="middle" fill="red">206.87 MB/s</text>
    <text x="650" y="185" font-size="8" text-anchor="middle" fill="red">50th=1ms</text>
    <text x="650" y="195" font-size="8" text-anchor="middle" fill="red">95th=2ms</text>
    <text x="650" y="205" font-size="8" text-anchor="middle" fill="red">99th=2ms</text>
    <text x="650" y="215" font-size="8" text-anchor="middle" fill="red">99.9th=4ms</text>
</svg>