<svg viewBox="0 0 800 600" xmlns="http://www.w3.org/2000/svg">
    <!-- 背景 -->
    <rect width="800" height="600" fill="white"/>

    <!-- 坐标轴 -->
    <line x1="60" y1="550" x2="740" y2="550" stroke="black" stroke-width="2"/>
    <line x1="60" y1="50" x2="60" y2="550" stroke="black" stroke-width="2"/>

    <!-- Y轴刻度 -->
    <text x="30" y="550" text-anchor="end">100</text>
    <text x="30" y="450" text-anchor="end">150</text>
    <text x="30" y="350" text-anchor="end">200</text>
    <text x="30" y="250" text-anchor="end">250</text>
    <text x="55" y="50" text-anchor="end">MB/sec</text>

    <!-- X轴刻度 -->
    <text x="250" y="580" text-anchor="middle">1</text>
    <text x="470" y="580" text-anchor="middle">2</text>
    <text x="690" y="580" text-anchor="middle">3</text>
    <text x="400" y="595" text-anchor="middle">Test Number</text>

    <!-- Kafka线 -->
    <polyline
        points="250,488 470,362 690,296"
        fill="none"
        stroke="blue"
        stroke-width="3"
    />

    <!-- Stonemq线 -->
    <polyline
        points="250,254 470,240 690,239"
        fill="none"
        stroke="red"
        stroke-width="3"
    />

    <!-- 数据点 -->
    <circle cx="250" cy="488" r="5" fill="blue"/>
    <circle cx="470" cy="362" r="5" fill="blue"/>
    <circle cx="690" cy="296" r="5" fill="blue"/>

    <circle cx="250" cy="254" r="5" fill="red"/>
    <circle cx="470" cy="240" r="5" fill="red"/>
    <circle cx="690" cy="239" r="5" fill="red"/>

    <!-- 标题 -->
    <text x="400" y="35" text-anchor="middle" font-size="24">Throughput Comparison</text>

    <!-- 图例 -->
    <text x="500" y="50">-message size 100 bytes, sending 1M records </text>
    <rect x="575" y="60" width="18" height="18" fill="blue"/>
    <text x="600" y="75">Kafka (2 partitions)</text>
    <rect x="575" y="85" width="18" height="18" fill="red"/>
    <text x="600" y="100">Stonemq (2 journals, 2 queues)</text>

    <!-- 延迟标注 (Kafka) -->
    <text x="250" y="508" font-size="10" text-anchor="middle" fill="blue">123.69 MB/s</text>
    <text x="250" y="523" font-size="8" text-anchor="middle" fill="blue">50th=1ms</text>
    <text x="250" y="533" font-size="8" text-anchor="middle" fill="blue">95th=19ms</text>
    <text x="250" y="543" font-size="8" text-anchor="middle" fill="blue">99th=26ms</text>
    <text x="250" y="553" font-size="8" text-anchor="middle" fill="blue">99.9th=28ms</text>
    
    <text x="470" y="382" font-size="10" text-anchor="middle" fill="blue">174.35 MB/s</text>
    <text x="470" y="397" font-size="8" text-anchor="middle" fill="blue">50th=1ms</text>
    <text x="470" y="407" font-size="8" text-anchor="middle" fill="blue">95th=5ms</text>
    <text x="470" y="417" font-size="8" text-anchor="middle" fill="blue">99th=7ms</text>
    <text x="470" y="427" font-size="8" text-anchor="middle" fill="blue">99.9th=7ms</text>
    
    <text x="690" y="316" font-size="10" text-anchor="middle" fill="blue">200.77 MB/s</text>
    <text x="690" y="331" font-size="8" text-anchor="middle" fill="blue">50th=1ms</text>
    <text x="690" y="341" font-size="8" text-anchor="middle" fill="blue">95th=1ms</text>
    <text x="690" y="351" font-size="8" text-anchor="middle" fill="blue">99th=2ms</text>
    <text x="690" y="361" font-size="8" text-anchor="middle" fill="blue">99.9th=3ms</text>

    <!-- 延迟标注 (Stonemq) -->
    <text x="250" y="274" font-size="10" text-anchor="middle" fill="red">218.23 MB/s</text>
    <text x="250" y="289" font-size="8" text-anchor="middle" fill="red">50th=0ms</text>
    <text x="250" y="299" font-size="8" text-anchor="middle" fill="red">95th=1ms</text>
    <text x="250" y="309" font-size="8" text-anchor="middle" fill="red">99th=2ms</text>
    <text x="250" y="319" font-size="8" text-anchor="middle" fill="red">99.9th=2ms</text>
    
    <text x="470" y="260" font-size="10" text-anchor="middle" fill="red">223.87 MB/s</text>
    <text x="470" y="275" font-size="8" text-anchor="middle" fill="red">50th=0ms</text>
    <text x="470" y="285" font-size="8" text-anchor="middle" fill="red">95th=3ms</text>
    <text x="470" y="295" font-size="8" text-anchor="middle" fill="red">99th=6ms</text>
    <text x="470" y="305" font-size="8" text-anchor="middle" fill="red">99.9th=7ms</text>
    
    <text x="690" y="259" font-size="10" text-anchor="middle" fill="red">224.39 MB/s</text>
    <text x="690" y="274" font-size="8" text-anchor="middle" fill="red">50th=0ms</text>
    <text x="690" y="284" font-size="8" text-anchor="middle" fill="red">95th=1ms</text>
    <text x="690" y="294" font-size="8" text-anchor="middle" fill="red">99th=2ms</text>
    <text x="690" y="304" font-size="8" text-anchor="middle" fill="red">99.9th=3ms</text>
</svg>